<svg width="35" height="24" viewBox="0 0 35 35" fill="none" xmlns="http://www.w3.org/2000/svg">
<g clip-path="url(#clip0_463_47)">
<path d="M20.1798 4.4352L19.9255 4.09242L20.3489 4.10521C20.4334 4.10521 20.5171 4.10521 20.6001 4.10521C25.0095 4.10521 25.0712 0.311486 25.0712 0.150884L25.162 0.141296C22.4762 -0.0776343 18.9333 -0.00732087 15.1029 1.02021C8.32677 -1.28495 0 1.0274 0 1.0274V23.9999C0 23.9999 8.06767 21.6955 15.1029 23.9999C21.7645 21.9544 28.5967 23.57 29.9617 23.9312C24.7615 10.6883 20.2225 4.49593 20.1798 4.4352Z" fill="#305C78"/>
<path d="M30.2066 22.9948V1.02749C30.2066 1.02749 28.3795 0.440211 25.4859 0.17334L30.2066 22.9948Z" fill="#305C78"/>
</g>
<defs>
<clipPath id="clip0_463_47">
<rect width="35" height="24" fill="white"/>
</clipPath>
</defs>
</svg>
