<svg viewBox="0 0 156 40" fill="none" xmlns="http://www.w3.org/2000/svg">
<g clip-path="url(#clip0_463_47)">
<path d="M48.1226 22.7992C46.5593 23.4655 44.4612 23.8459 42.1744 23.8459C41.3291 23.8459 40.9894 23.8459 40.0455 23.7188L39.2318 21.3082C40.0455 21.468 40.3591 21.4984 41.2659 21.4984C44.5236 21.4984 49.0634 20.2032 49.0634 16.145C49.0634 12.9489 46.1801 12.9153 43.8648 12.9153H42.8332V10.1643H44.65C46.5001 10.1643 48.7214 9.72008 48.7214 7.34621C48.7214 5.69704 47.5949 4.52329 45.5908 4.52329C43.616 4.52329 42.3655 5.31671 40.863 6.39458L39.1094 4.23725C40.9262 2.68796 43.7432 1.57812 46.1233 1.57812C49.8502 1.57812 52.5107 3.85691 52.5107 6.93152C52.5107 9.40048 51.1963 10.8283 49.0666 11.6153C51.2563 12.2817 53.0439 14.0579 53.0439 16.463C53.0439 19.2499 51.0391 21.5918 48.1258 22.7968" fill="#305C78"/>
<path d="M69.1673 19.7915C67.3504 22.1334 65.4719 22.8629 61.4314 22.8629H56.0795V0.944336H60.5822C64.6543 0.944336 67.0597 1.705 69.0993 4.0525C70.6998 5.919 71.451 8.54936 71.451 11.9667C71.451 15.2922 70.6382 17.8874 69.1673 19.7915ZM66.0652 5.72883C65.0643 4.33296 63.9379 3.83038 61.9962 3.83038H59.7054V19.8858H62.0894C65.9072 19.8858 67.4413 17.3217 67.4413 12.3471C67.4413 9.52975 67.1932 7.28292 66.0644 5.72883" fill="#305C78"/>
<path d="M84.6983 0.944336H81.003V22.8629H84.6983V0.944336Z" fill="#305C78"/>
<path d="M92.8085 23.3071C90.8637 23.3071 88.7672 22.6719 86.7339 21.5309L87.9536 19.03C89.3652 19.8546 91.3029 20.7079 93.0882 20.7079C94.5891 20.7079 95.6547 19.789 95.6547 18.4563C95.6547 17.2242 94.8703 16.5906 93.0882 16.2095L91.1749 15.7972C88.7956 15.2898 87.3832 13.6454 87.3832 11.393C87.3832 8.3855 89.7641 6.29688 93.2722 6.29688C95.4304 6.29688 97.1556 6.96325 98.4985 7.68716L97.3752 10.0978C95.9012 9.30517 94.7463 8.92483 93.4918 8.92483C92.0178 8.92483 91.077 9.74942 91.077 10.9863C91.077 11.9643 91.6102 12.4717 93.2098 12.884L95.1847 13.3913C98.3784 14.2167 99.2252 15.9873 99.2252 17.8538C99.2252 21.0834 96.6271 23.3047 92.807 23.3047" fill="#305C78"/>
<path d="M106.397 23.3071C104.459 23.3071 102.357 22.6719 100.324 21.5309L101.542 19.03C102.953 19.8546 104.897 20.7079 106.677 20.7079C108.182 20.7079 109.243 19.789 109.243 18.4563C109.243 17.2242 108.465 16.5906 106.677 16.2095L104.769 15.7972C102.387 15.2898 100.977 13.6454 100.977 11.393C100.977 8.3855 103.355 6.29688 106.863 6.29688C109.021 6.29688 110.746 6.96325 112.094 7.68716L110.96 10.0978C109.491 9.30517 108.331 8.92483 107.082 8.92483C105.608 8.92483 104.672 9.74942 104.672 10.9863C104.672 11.9643 105.205 12.4717 106.799 12.884L108.774 13.3913C111.968 14.2167 112.815 15.9873 112.815 17.8538C112.815 21.0834 110.217 23.3047 106.396 23.3047" fill="#305C78"/>
<path d="M125.401 23.3703C124.717 22.8629 124.309 22.2916 124.027 21.3767C122.867 22.7039 121.335 23.3383 119.516 23.3383C117.735 23.3383 116.356 22.7039 115.576 21.7523C114.948 20.9964 114.697 19.9497 114.697 17.9513V7.09194L118.079 6.45752V17.1955C118.079 19.1882 118.362 20.6472 120.394 20.6472C121.555 20.6472 122.961 19.6956 123.494 18.5546V7.09194L126.812 6.45752V18.5226C126.812 20.9285 127.779 21.7187 127.779 21.7187L125.401 23.3703Z" fill="#305C78"/>
<path d="M132.484 15.7996V16.0537C132.484 18.2733 133.294 20.6153 136.399 20.6153C137.868 20.6153 139.153 20.0767 140.34 19.03L141.688 21.1546C140.029 22.5768 138.118 23.2744 135.991 23.2744C131.512 23.2744 128.694 20.0128 128.694 14.8799C128.694 12.0618 129.285 10.1953 130.664 8.61006C131.95 7.1239 133.519 6.45752 135.52 6.45752C137.088 6.45752 138.522 6.87061 139.865 8.10189C141.245 9.37073 141.935 11.3323 141.935 15.0701V15.7996H132.484ZM135.52 9.08788C133.576 9.08788 132.518 10.6364 132.518 13.238H138.372C138.372 10.6364 137.243 9.08788 135.523 9.08788" fill="#305C78"/>
<path d="M30.2066 22.9948V1.02749C30.2066 1.02749 28.3795 0.440211 25.4859 0.17334L30.2066 22.9948Z" fill="#305C78"/>
<path d="M20.1798 4.4352L19.9255 4.09242L20.3489 4.10521C20.4334 4.10521 20.5171 4.10521 20.6001 4.10521C25.0095 4.10521 25.0712 0.311486 25.0712 0.150884L25.162 0.141296C22.4762 -0.0776343 18.9333 -0.00732087 15.1029 1.02021C8.32677 -1.28495 0 1.0274 0 1.0274V23.9999C0 23.9999 8.06767 21.6955 15.1029 23.9999C21.7645 21.9544 28.5967 23.57 29.9617 23.9312C24.7615 10.6883 20.2225 4.49593 20.1798 4.4352Z" fill="#305C78"/>
<path d="M154.717 22.1965C154.311 22.6095 153.827 22.9373 153.295 23.1609C152.763 23.3846 152.193 23.4997 151.617 23.4997C151.04 23.4997 150.47 23.3846 149.938 23.1609C149.406 22.9373 148.923 22.6095 148.516 22.1965C147.669 21.3314 147.245 20.2828 147.245 19.0507C147.247 18.323 147.427 17.607 147.767 16.9661C148.108 16.3252 148.6 15.7792 149.199 15.3763C149.798 14.9734 150.486 14.7261 151.203 14.6562C151.919 14.5863 152.641 14.6961 153.305 14.9757C153.969 15.2554 154.555 15.6963 155.011 16.2595C155.467 16.8227 155.778 17.4908 155.918 18.2047C156.057 18.9186 156.021 19.6563 155.811 20.3525C155.602 21.0488 155.226 21.6821 154.717 22.1965ZM148.951 16.3525C148.596 16.703 148.315 17.1231 148.126 17.587C147.938 18.051 147.844 18.5491 147.853 19.0507C147.844 19.5547 147.936 20.0552 148.123 20.5221C148.311 20.9891 148.59 21.4127 148.944 21.7674C149.294 22.1232 149.71 22.4055 150.167 22.5982C150.625 22.7909 151.116 22.89 151.612 22.89C152.108 22.89 152.599 22.7909 153.057 22.5982C153.515 22.4055 153.931 22.1232 154.28 21.7674C154.983 21.0457 155.377 20.0731 155.377 19.0599C155.377 18.0467 154.983 17.0742 154.28 16.3525C153.931 15.9967 153.516 15.7143 153.059 15.5216C152.601 15.3289 152.111 15.2297 151.615 15.2297C151.12 15.2297 150.629 15.3289 150.172 15.5216C149.715 15.7143 149.299 15.9967 148.951 16.3525ZM151.529 16.6065C152.125 16.6065 152.563 16.6649 152.842 16.7815C153.339 16.9909 153.587 17.4013 153.587 18.0128C153.587 18.4475 153.43 18.7671 153.114 18.9716C152.899 19.0983 152.662 19.1799 152.415 19.2113C152.791 19.2715 153.066 19.4313 153.241 19.6907C153.402 19.9092 153.493 20.1725 153.502 20.445V20.8014C153.502 20.9143 153.506 21.035 153.514 21.1633C153.514 21.2494 153.528 21.3349 153.555 21.4166L153.585 21.4773H152.795L152.783 21.4294C152.783 21.4126 152.775 21.395 152.771 21.3743L152.753 21.2145V20.8285C152.753 20.2644 152.602 19.8916 152.3 19.7099C152.121 19.6034 151.806 19.5501 151.357 19.5501H150.688V21.4678H149.841V16.6065H151.529ZM151.415 17.1914H150.693V18.9541H151.457C151.815 18.9541 152.083 18.9181 152.263 18.8462C152.593 18.7125 152.758 18.4589 152.758 18.0855C152.758 17.7308 152.653 17.4932 152.442 17.3728C152.231 17.2524 151.89 17.192 151.417 17.1914H151.415Z" fill="#305C78"/>
</g>
<defs>
<clipPath id="clip0_463_47">
<rect width="156" height="24" fill="white"/>
</clipPath>
</defs>
</svg>
