<svg class="sm-logoClass-0-2-14" viewBox="0 0 419 419" xmlns="http://www.w3.org/2000/svg">
    <g>
        <path
            d="m333.69 150.16c-3.51 0-6.98.58-10.49 1.16-13.38-52.3898-55.86-91.9498-108.83-101.2798-2.31-.58-4.66-.58-6.98-1.16.58-12.8 1.16-27.95 20.36-41.32997l-3.51-7.55999562s-37.24 11.63996562-41.33 43.63996562c-1.73-8.71-19.2-19.78-27.95-21.55l-4.09 6.98c7.56 4.66 12.8 12.8 13.96 21.55-53.55 9.33-96.0401 48.89-109.4101 101.2798-23.86-5.82-48.30999 8.71-54.12999 32.58-5.82 23.86 8.71 48.31 32.57999 54.13 9.33 2.31 18.62 1.73 27.37-1.73 4.09 9.33 8.71 18.62 14.53 26.76l37.2401-25.02-.58-.58c-10.49-14.53-16.3101-32-16.8901-49.46-1.16-20.36 4.09-40.75 16.8901-52.39 26.76-22.71 55.86-12.22 74.48 9.33h4.66c18.04-22.13 47.15-32 74.48-9.33 12.8 11.64 18.04 32 16.89 52.39-.58 18.04-6.4 34.93-16.89 49.46l-.58.58 37.24 25.02c5.82-8.13 10.49-17.46 14.53-26.76 22.71 8.71 48.89-2.31 57.64-25.02s-2.31-48.89-25.02-57.64c-5.24-2.89-11.06-4.09-16.31-4.09l.12.04zm-289.8801 58.22c-6.98-.58-12.8-6.4-12.22-13.96.58-6.98 5.82-12.22 12.22-12.8 2.89 0 5.24.58 7.56 2.31 0 6.98.58 13.96 1.16 20.97-2.31 2.31-5.24 3.51-8.71 3.51v-.04zm290.4601 0c-3.51 0-6.4-1.16-8.71-3.51.58-6.98 1.16-13.96 1.16-20.97 5.82-4.09 13.96-2.31 18.04 3.51 1.73 2.31 2.31 4.66 2.31 7.56.58 7.56-5.82 13.38-12.8 13.38v.04z"
            fill="#008323"></path>
    </g>
</svg>