<?xml version="1.0" encoding="utf-8"?>
<!-- Generator: Adobe Illustrator 26.0.1, SVG Export Plug-In . SVG Version: 6.00 Build 0)  -->
<svg version="1.1" id="Capa_1" xmlns="http://www.w3.org/2000/svg" xmlns:xlink="http://www.w3.org/1999/xlink" x="0px" y="0px"
	 width="219.7px" height="136.2px" viewBox="0 0 219.7 136.2" style="enable-background:new 0 0 219.7 136.2;" xml:space="preserve"
	>
<style type="text/css">
	.st0{fill:none;}
	.st1{fill-rule:evenodd;clip-rule:evenodd;fill:#1D1D1B;}
	.st2{fill:#1D1D1B;}
</style>
<g id="Capa_2_00000103948650121055632320000004811387527613239439_">
	<g id="Capa_4">
		<rect class="st0" width="219.7" height="136.2"/>
		<path class="st1" d="M27.9,106.3c0-1.2,0.4-2.3,1.8-2.3s1.9,1.1,1.9,2.2s-0.5,2.2-1.8,2.2S27.9,107.4,27.9,106.3 M32.5,101.1h-1v3
			l0,0c-0.4-0.6-1.1-0.9-1.9-0.9c-1.8,0-2.7,1.4-2.7,3s0.9,3.1,2.7,3.1c0.7,0.1,1.5-0.3,1.9-0.9l0,0v0.8h1V101.1z"/>
		<path class="st1" d="M34.7,105.7c0.1-0.9,0.9-1.6,1.8-1.6c0.8,0.1,1.5,0.7,1.6,1.6H34.7 M38,107.3c-0.1,0.7-0.8,1.2-1.5,1.1
			c-1,0.1-1.8-0.7-1.8-1.6c0-0.1,0-0.2,0-0.3H39c0.1-1.4-0.6-3.3-2.7-3.3c-1.6,0-2.8,1.3-2.8,2.9c0,0,0,0.1,0,0.1
			c0.1,1.8,0.9,3.1,2.8,3.1c1.2,0.1,2.3-0.8,2.5-2L38,107.3z"/>
		<rect x="40.1" y="101.1" class="st2" width="1" height="8.1"/>
		<path class="st1" d="M46.9,102H49c1.2,0,1.8,0.5,1.8,1.5S50.2,105,49,105h-2.1V102 M45.9,109.2h1.1v-3.3h2.5
			c1.3,0,2.4-1.1,2.4-2.4c0-1.3-1.1-2.4-2.4-2.4c0,0,0,0,0,0h-3.5V109.2z"/>
		<path class="st1" d="M58.2,108.4c-0.1,0-0.2,0.1-0.3,0.1c-0.3,0-0.3-0.2-0.3-0.7v-3c0-1.4-1.2-1.6-2.2-1.6c-1.3,0-2.4,0.5-2.5,2h1
			c0-0.9,0.7-1.1,1.5-1.1c0.6,0,1.3,0.1,1.3,1s-0.9,0.7-2,0.9s-2,0.5-2,1.8c0,1.2,0.9,1.6,1.9,1.6c0.8,0,1.5-0.3,2.1-0.9
			c0,0.6,0.3,0.9,0.8,0.9c0.2,0,0.5,0,0.7-0.2L58.2,108.4 M56.7,107.2c0,0.5-0.5,1.3-1.8,1.3c-0.6,0-1.1-0.2-1.1-0.9
			s0.5-0.9,1.2-1.1c0.6,0,1.2-0.2,1.8-0.4V107.2z"/>
		<path class="st1" d="M60.1,109.2v-5.9h-1v5.9H60.1z M59,102.5h0.7l1.5-1.6h-1.3L59,102.5z"/>
		<path class="st2" d="M61.3,107.3c0.1,1.4,1.2,2,2.5,2c1.3,0,2.5-0.4,2.5-1.8c0-1.1-0.9-1.4-1.9-1.7s-1.9-0.3-1.9-1
			s0.7-0.8,1.2-0.8c0.6,0,1.3,0.2,1.4,1h1c-0.1-1.4-1.1-1.8-2.4-1.8c-1,0-2.2,0.5-2.2,1.7s1,1.4,1.9,1.7c0.9,0.2,1.9,0.3,1.9,1.1
			s-0.8,0.9-1.4,0.9c-0.8,0-1.5-0.3-1.6-1.1L61.3,107.3"/>
		<polyline class="st2" points="76.7,101.1 75.6,101.1 73.2,108.1 73.2,108.1 70.9,101.1 69.7,101.1 72.6,109.2 73.8,109.2 
			76.7,101.1 		"/>
		<path class="st1" d="M81.9,108.4c-0.1,0-0.2,0.1-0.3,0.1c-0.3,0-0.3-0.2-0.3-0.7v-3c0-1.4-1.1-1.6-2.2-1.6c-1.3,0-2.4,0.5-2.5,2h1
			c0-0.9,0.7-1.1,1.5-1.1c0.6,0,1.3,0.1,1.3,1s-0.9,0.7-2,0.9s-2,0.5-2,1.8c0,1.2,0.9,1.6,1.9,1.6c0.8,0,1.5-0.3,2.1-0.9
			c0,0.6,0.3,0.9,0.8,0.9c0.2,0,0.5,0,0.7-0.2V108.4 M80.4,107.2c0,0.5-0.5,1.3-1.8,1.3c-0.6,0-1.1-0.2-1.1-0.9s0.6-0.9,1.2-1.1
			c0.6,0,1.2-0.2,1.8-0.4V107.2z"/>
		<path class="st2" d="M82.5,107.3c0.1,1.4,1.2,2,2.5,2s2.5-0.4,2.5-1.8c0-1.1-1-1.4-1.9-1.7s-1.9-0.3-1.9-1s0.7-0.8,1.2-0.8
			s1.3,0.2,1.4,1h1c-0.1-1.4-1.1-1.8-2.4-1.8c-1,0-2.2,0.5-2.2,1.7s1,1.4,1.9,1.7s1.9,0.3,1.9,1.1s-0.8,0.9-1.4,0.9
			c-0.8,0-1.5-0.3-1.6-1.1L82.5,107.3"/>
		<path class="st2" d="M93.5,105.2c-0.1-1.2-1.2-2.1-2.5-2c0,0,0,0-0.1,0c-1.9,0-2.8,1.4-2.8,3.1c-0.2,1.5,0.9,2.8,2.3,3
			c0.1,0,0.3,0,0.4,0c1.3,0.1,2.5-0.9,2.6-2.3c0,0,0,0,0,0h-1c0,0.8-0.8,1.5-1.6,1.4c0,0,0,0,0,0c-1.2,0-1.7-1.1-1.7-2.1
			s0.4-2.3,1.8-2.3c0.7,0,1.3,0.5,1.4,1.2L93.5,105.2"/>
		<path class="st1" d="M95.3,106.2c0-1.4,0.8-2.2,1.8-2.2s1.8,0.8,1.8,2.2s-0.8,2.2-1.8,2.2S95.3,107.7,95.3,106.2 M94.3,106.2
			c0.1,1.6,1.5,2.7,3.1,2.6c1.6-0.1,2.7-1.5,2.6-3.1c-0.1-1.5-1.4-2.6-2.8-2.6c-1.5-0.1-2.8,1.1-2.9,2.7
			C94.3,106,94.3,106.1,94.3,106.2L94.3,106.2z"/>
		<path class="st2" d="M48.6,89.7h-1.1v5.2c0.1,1.1-0.7,2.1-1.8,2.2c-0.1,0-0.2,0-0.3,0c-1.1,0.1-2.1-0.6-2.2-1.7c0-0.2,0-0.3,0-0.5
			v-5.2h-1.1v5.2c0,2.2,1.2,3.1,3.3,3.1c1.6,0.2,3-0.9,3.2-2.5c0-0.2,0-0.4,0-0.6V89.7"/>
		<path class="st2" d="M50.1,97.8h1v-3.3c-0.1-0.9,0.5-1.7,1.4-1.8c0.1,0,0.2,0,0.3,0c0.6-0.1,1.1,0.4,1.2,1c0,0.1,0,0.1,0,0.2v4h1
			V94c0-1.3-0.5-2.2-2-2.2c-0.8-0.1-1.6,0.3-2,1l0,0V92h-0.9L50.1,97.8"/>
		<path class="st1" d="M57.3,90.9v-1.2h-1v1.2H57.3z M56.3,91.9v5.9h1V92L56.3,91.9z"/>
		<polyline class="st2" points="63.5,92 62.4,92 60.8,96.8 60.8,96.8 59.2,92 58.1,92 60.3,97.8 61.3,97.8 63.5,92 		"/>
		<path class="st1" d="M64.9,94.3c0-0.9,0.8-1.7,1.7-1.7c0,0,0,0,0,0c0.9,0,1.7,0.7,1.7,1.7H64.9 M68.3,96c-0.1,0.7-0.8,1.2-1.5,1.2
			c-1,0.1-1.8-0.7-1.8-1.6c0-0.1,0-0.2,0-0.3h4.4c0-1.4-0.6-3.4-2.7-3.4c-1.6,0-2.8,1.3-2.8,2.9c0,0,0,0.1,0,0.1
			c0.1,1.8,0.9,3.1,2.8,3.1c1.2,0.1,2.3-0.8,2.5-2H68.3z"/>
		<path class="st2" d="M70.2,97.8h1v-2.6c0-1.5,0.6-2.4,2.1-2.4v-1c-0.9-0.1-1.8,0.5-2.2,1.4l0,0V92h-0.9L70.2,97.8"/>
		<path class="st2" d="M73.5,96c0,1.4,1.2,2,2.5,2s2.5-0.5,2.5-1.8c0-1.1-1-1.4-1.9-1.7s-1.9-0.3-1.9-1s0.7-0.8,1.2-0.8
			s1.3,0.2,1.4,1h1c-0.1-1.4-1.1-1.8-2.4-1.8c-1,0-2.2,0.5-2.2,1.7s1,1.4,1.9,1.7s1.9,0.3,1.9,1.1s-0.8,0.9-1.4,0.9
			c-0.8,0-1.5-0.3-1.6-1.1L73.5,96"/>
		<path class="st1" d="M80.4,90.9v-1.2h-1v1.2H80.4z M79.4,91.9v5.9h1V92L79.4,91.9z"/>
		<path class="st1" d="M82.5,94.9c0-1.1,0.4-2.3,1.8-2.3s1.8,1.1,1.8,2.2s-0.5,2.2-1.8,2.2S82.5,96,82.5,94.9 M87,89.7h-1v3l0,0
			c-0.4-0.6-1.1-0.9-1.9-0.9c-1.8,0-2.7,1.4-2.7,3.1s0.9,3.1,2.7,3.1c0.8,0.1,1.5-0.3,1.9-1l0,0v0.8h1L87,89.7z"/>
		<path class="st1" d="M93.6,97.1c-0.1,0-0.2,0.1-0.3,0.1c-0.3,0-0.3-0.2-0.3-0.7v-3c0-1.4-1.1-1.6-2.2-1.6c-1.3,0-2.4,0.5-2.5,2h1
			c0-0.9,0.7-1.1,1.5-1.1c0.6,0,1.3,0.1,1.3,1s-0.9,0.7-2,0.9s-2,0.5-2,1.8c0,1.1,0.9,1.6,1.9,1.6c0.8,0,1.6-0.3,2.1-0.9
			c0,0.6,0.3,0.9,0.8,0.9c0.2,0,0.5,0,0.7-0.2L93.6,97.1 M92,95.8c0,0.5-0.5,1.3-1.8,1.3c-0.6,0-1.1-0.2-1.1-0.9s0.6-0.9,1.2-1
			c0.6,0,1.2-0.2,1.8-0.4V95.8z"/>
		<path class="st1" d="M95.1,94.9c0-1.1,0.4-2.3,1.8-2.3s1.8,1.1,1.8,2.2s-0.5,2.2-1.8,2.2S95.1,96,95.1,94.9 M99.6,89.7h-1v3l0,0
			c-0.4-0.6-1.1-0.9-1.9-0.9c-1.8,0-2.7,1.4-2.7,3.1s1,3.1,2.7,3.1c0.8,0.1,1.5-0.3,1.9-1l0,0v0.8h1L99.6,89.7z"/>
		<path class="st2" d="M127.3,101.1h-1.1v5.2c0.2,1.1-0.6,2-1.6,2.2c-0.2,0-0.3,0-0.5,0c-1.1,0.1-2.1-0.6-2.2-1.7c0-0.2,0-0.3,0-0.5
			v-5.2h-1.1v5.2c0,2.2,1.2,3.1,3.3,3.1c1.6,0.2,3-0.9,3.2-2.5c0-0.2,0-0.4,0-0.6V101.1"/>
		<path class="st2" d="M128.7,109.1h1v-3.3c-0.1-0.9,0.5-1.7,1.4-1.8c0.1,0,0.2,0,0.3,0c0.6-0.1,1.1,0.4,1.2,1c0,0.1,0,0.1,0,0.2v4
			h1v-3.8c0-1.3-0.5-2.1-2-2.1c-0.8-0.1-1.5,0.4-1.9,1.1l0,0v-0.9h-0.9v5.9"/>
		<path class="st1" d="M135.8,102.2v-1.2h-1v1.2H135.8z M134.8,103.2v5.9h1v-5.9H134.8z"/>
		<path class="st1" d="M137.1,109.1h1v-0.8l0,0c0.4,0.6,1.1,0.9,1.9,0.9c1.8,0,2.7-1.4,2.7-3s-0.9-3.1-2.7-3.1
			c-0.7-0.1-1.5,0.3-1.9,0.9l0,0v-3h-1V109.1 M141.6,106.2c0,1.2-0.4,2.3-1.8,2.3s-1.9-1.1-1.9-2.2s0.5-2.2,1.8-2.2
			S141.6,105.1,141.6,106.2L141.6,106.2z"/>
		<path class="st1" d="M144.2,105.7c0-0.9,0.8-1.7,1.7-1.7c0.9,0,1.7,0.7,1.7,1.7H144.2 M147.6,107.3c-0.1,0.7-0.8,1.2-1.5,1.1
			c-1,0.1-1.8-0.7-1.8-1.6c0-0.1,0-0.2,0-0.3h4.4c0.1-1.4-0.6-3.3-2.6-3.3c-1.6,0-2.8,1.3-2.8,2.9c0,0,0,0.1,0,0.1
			c0.1,1.8,0.9,3.1,2.8,3.1c1.2,0.1,2.3-0.8,2.5-2L147.6,107.3z"/>
		<path class="st2" d="M149.4,109.1h1v-2.6c0-1.5,0.6-2.4,2.1-2.4v-1c-0.9-0.1-1.8,0.5-2.2,1.4l0,0v-1.2h-0.9L149.4,109.1"/>
		<path class="st2" d="M154.3,101.5h-1v1.8h-1v0.8h1v3.7c0,1.1,0.4,1.3,1.4,1.3h0.7v-0.8H155c-0.6,0-0.7-0.1-0.7-0.5v-3.6h1.2v-0.8
			h-1.2L154.3,101.5"/>
		<path class="st2" d="M155.9,107.3c0,1.4,1.2,2,2.5,2s2.5-0.4,2.5-1.8c0-1.1-1-1.4-1.9-1.7s-1.9-0.3-1.9-1s0.7-0.8,1.2-0.8
			s1.3,0.2,1.4,1h1c-0.1-1.4-1.1-1.8-2.4-1.8c-1,0-2.2,0.5-2.2,1.7s1,1.4,1.9,1.7s1.9,0.3,1.9,1.1s-0.8,0.9-1.4,0.9
			c-0.8,0-1.5-0.3-1.6-1.1L155.9,107.3"/>
		<path class="st1" d="M162.7,102.2v-1.2h-1v1.2H162.7z M161.7,103.2v5.9h1v-5.9H161.7z"/>
		<path class="st2" d="M165.3,101.5h-1v1.8h-1v0.8h1v3.7c0,1.1,0.4,1.3,1.4,1.3h0.7v-0.8H166c-0.6,0-0.7-0.1-0.7-0.5v-3.6h1.2v-0.8
			h-1.2L165.3,101.5"/>
		<path class="st1" d="M172.5,108.4c-0.1,0-0.2,0.1-0.3,0.1c-0.3,0-0.3-0.2-0.3-0.7v-3c0-1.4-1.1-1.6-2.2-1.6c-1.3,0-2.4,0.5-2.5,2
			h1c0-0.9,0.6-1.1,1.5-1.1c0.6,0,1.3,0.1,1.3,1s-0.9,0.7-2,0.9s-2,0.5-2,1.8c0,1.2,0.9,1.6,1.9,1.6c0.8,0,1.5-0.3,2.1-0.9
			c0,0.6,0.3,0.9,0.8,0.9c0.2,0,0.5,0,0.7-0.2L172.5,108.4 M171,107.1c0,0.5-0.5,1.3-1.8,1.3c-0.6,0-1.1-0.2-1.1-0.9
			s0.6-0.9,1.2-1.1c0.6,0,1.2-0.2,1.8-0.4V107.1z"/>
		<path class="st2" d="M174.5,101.5h-1v1.8h-1v0.8h1v3.7c0,1.1,0.4,1.3,1.4,1.3h0.7v-0.8h-0.4c-0.6,0-0.7-0.1-0.7-0.5v-3.6h1.2v-0.8
			h-1.2L174.5,101.5"/>
		<path class="st1" d="M177.2,105.7c0-0.9,0.8-1.7,1.7-1.7c0.9,0,1.7,0.7,1.7,1.7H177.2 M180.6,107.3c-0.1,0.7-0.8,1.2-1.5,1.1
			c-1,0.1-1.8-0.7-1.8-1.6c0-0.1,0-0.2,0-0.3h4.4c0.1-1.4-0.6-3.3-2.6-3.3c-1.6,0-2.8,1.3-2.8,2.9c0,0,0,0.1,0,0.1
			c0.1,1.8,0.9,3.1,2.8,3.1c1.2,0.1,2.3-0.8,2.5-2L180.6,107.3z"/>
		<path class="st1" d="M187.6,108.4c-0.1,0-0.2,0.1-0.3,0.1c-0.3,0-0.3-0.2-0.3-0.7v-3c0-1.4-1.1-1.6-2.2-1.6c-1.3,0-2.4,0.5-2.5,2
			h1c0-0.9,0.6-1.1,1.5-1.1c0.6,0,1.3,0.1,1.3,1s-0.9,0.7-2,0.9s-2,0.5-2,1.8c0,1.2,0.9,1.6,1.9,1.6c0.8,0,1.5-0.3,2.1-0.9
			c0,0.6,0.3,0.9,0.8,0.9c0.2,0,0.5,0,0.7-0.2L187.6,108.4 M186,107.1c0,0.5-0.5,1.3-1.8,1.3c-0.6,0-1.1-0.2-1.1-0.9
			s0.5-0.9,1.2-1.1c0.6,0,1.2-0.2,1.7-0.4V107.1z"/>
		<polyline class="st2" points="120.9,97.8 126.5,97.8 126.5,96.9 122,96.9 122,94.1 126.2,94.1 126.2,93.2 122,93.2 122,90.6 
			126.5,90.6 126.5,89.7 120.9,89.7 120.9,97.8 		"/>
		<path class="st2" d="M132.5,92h-1v3.3c0.1,0.9-0.5,1.7-1.4,1.8c-0.1,0-0.2,0-0.3,0c-0.6,0-1.1-0.4-1.2-1c0-0.1,0-0.1,0-0.2v-4h-1
			v3.8c0,1.3,0.5,2.2,2,2.2c0.8,0.1,1.5-0.4,1.9-1.1l0,0v0.9h0.9V92"/>
		<path class="st2" d="M133.6,96c0.1,1.4,1.2,2,2.5,2s2.5-0.5,2.5-1.8c0-1.1-0.9-1.4-1.9-1.7s-1.9-0.3-1.9-1s0.7-0.8,1.2-0.8
			s1.3,0.2,1.4,1h1c-0.1-1.4-1.1-1.8-2.4-1.8c-1,0-2.2,0.5-2.2,1.7s1,1.4,1.9,1.7s1.9,0.3,1.9,1.1s-0.8,0.9-1.4,0.9
			c-0.8,0-1.5-0.3-1.6-1.1L133.6,96"/>
		<polyline class="st2" points="139.7,97.8 140.6,97.8 140.6,95.6 141.5,94.8 143.5,97.8 144.8,97.8 142.3,94.1 144.6,91.9 
			143.3,91.9 140.6,94.5 140.6,89.7 139.7,89.7 139.7,97.8 		"/>
		<path class="st1" d="M150.7,97c-0.1,0-0.2,0.1-0.3,0.1c-0.3,0-0.3-0.2-0.3-0.7v-3c0-1.4-1.1-1.6-2.2-1.6c-1.3,0-2.4,0.5-2.5,2h1
			c0-0.9,0.6-1.1,1.5-1.1c0.6,0,1.3,0.1,1.3,1s-0.9,0.7-2,0.9s-2,0.5-2,1.8s0.9,1.7,1.9,1.7c0.8,0,1.5-0.3,2.1-0.9
			c0,0.6,0.3,0.9,0.8,0.9c0.2,0,0.5,0,0.7-0.2L150.7,97 M149.1,95.7c0,0.5-0.5,1.3-1.8,1.3c-0.6,0-1.1-0.2-1.1-0.9s0.6-0.9,1.2-1
			c0.6,0,1.2-0.2,1.8-0.4V95.7z"/>
		<rect x="151.6" y="89.7" class="st2" width="1" height="8.1"/>
		<polyline class="st2" points="157.4,97.8 158.5,97.8 158.5,94.1 162.7,94.1 162.7,97.8 163.8,97.8 163.8,89.7 162.7,89.7 
			162.7,93.2 158.5,93.2 158.5,89.7 157.4,89.7 157.4,97.8 		"/>
		<path class="st1" d="M166.1,94.3c0-0.9,0.8-1.7,1.7-1.7c0,0,0,0,0,0c0.9,0,1.7,0.7,1.7,1.7H166.1 M169.5,96
			c-0.2,0.7-0.8,1.1-1.5,1.1c-1,0.1-1.8-0.7-1.8-1.6c0-0.1,0-0.2,0-0.3h4.4c0.1-1.4-0.6-3.4-2.6-3.4c-1.6,0-2.8,1.3-2.8,2.9
			c0,0,0,0.1,0,0.1c0.1,1.8,0.9,3.1,2.8,3.1c1.2,0.1,2.3-0.8,2.5-2L169.5,96z"/>
		<path class="st2" d="M171.5,97.8h1v-2.6c0-1.5,0.6-2.4,2.1-2.4v-1c-0.9-0.1-1.8,0.5-2.1,1.4l0,0V92h-0.9L171.5,97.8"/>
		<path class="st2" d="M175.2,97.8h1v-2.6c0-1.5,0.6-2.4,2.1-2.4v-1c-0.9-0.1-1.8,0.5-2.1,1.4l0,0V92h-0.9L175.2,97.8"/>
		<path class="st1" d="M180.1,90.9v-1.2h-1v1.2H180.1z M179.1,91.9v5.9h1V92L179.1,91.9z"/>
		<polyline class="st2" points="181.6,97.8 182.6,97.8 182.6,95.6 183.5,94.8 185.5,97.8 186.7,97.8 184.2,94.1 186.5,91.9 
			185.2,91.9 182.6,94.5 182.6,89.7 181.6,89.7 181.6,97.8 		"/>
		<path class="st1" d="M188.1,94.9c0-1.4,0.8-2.2,1.8-2.2s1.8,0.8,1.8,2.2s-0.8,2.2-1.8,2.2S188.2,96.3,188.1,94.9 M187.2,94.9
			c0.1,1.6,1.5,2.7,3.1,2.6c1.6-0.1,2.7-1.5,2.6-3.1c-0.1-1.5-1.4-2.6-2.9-2.6c-1.5-0.1-2.8,1.1-2.9,2.7
			C187.1,94.6,187.1,94.7,187.2,94.9L187.2,94.9z"/>
		<path class="st1" d="M99.2,48.9c0,0-0.1-2.3-0.1-2.5c0-0.2-0.1-0.4-0.3-0.5c-0.3-0.1-0.6-0.1-0.8-0.1c-0.4,0-8.2,0.1-9.4,0.1
			s-1.5,0-1.6,0c-0.2,0-0.3,0.1-0.5,0.2c-0.1,0.2-0.1,0.4-0.1,0.6c0,0.3,0.1,4.7,0.2,8.9s0.2,8.9,0.2,9.2c0.1,0.5,0.2,1,0.6,1.4
			c0.2,0.3,0.5,0.5,0.9,0.5l6,0.3c0.3,0,0.8,0,0.8,0.3s0.1,3.9,0.1,4.2s0,0.4,0,0.6c0,0.2,0.1,0.4,0.2,0.5c0.2,0.1,1.4,1.1,1.8,1.3
			s1,0.6,1.2,0.7c0.2,0.1,0.3,0.2,0.5,0.2l3,0.1c0.4,0,0.9,0,0.9,0.3s0.3,5.3,0.3,6.3v1.9c0,0.2,0,0.4,0.2,0.5s6.2,0.1,8.7,0.1
			s4.4-0.1,4.6-0.1c0.2,0,0.5-0.1,0.6-0.3c0.1-0.2,0.3-0.4,0.4-0.6c0.1-0.2,0.2-0.4,0.2-0.7c0-0.3,0-7.2,0-7.7c0-0.4,0-0.9,0-1.3
			c0.3-0.4,0.6-0.7,1-1c0.1-0.1,0.2-0.2,0.7-0.2s5.6-0.3,7.2-0.4s2.8-0.2,3-0.2s0.6,0,0.7-0.3s1.2-2.3,1.3-2.4
			c0.1-0.3,0.2-0.5,0.1-0.8v-1.7c0-0.2,0.1-0.4,0.3-0.5c0.3-0.2,0.7-0.4,1.1-0.5c0.4,0,0.8,0,1.1,0.1c0.5,0.1,1.6,0.4,2,0.4
			c0.4,0.1,0.7,0.1,1.1,0c0.3-0.1,1.3-0.5,1.6-0.6s0.9-0.3,0.9-0.7c0.1-0.4,0.1-0.8,0.1-1.2V52c0-0.8,0.1-1.4-0.1-1.6
			c-0.2-0.2-0.4-0.3-0.6-0.3c-0.3-0.1-2.6-0.4-3.6-0.5s-1.4-0.2-1.6-0.2c-0.3,0-0.5-0.2-0.7-0.4c-0.2-0.2-1.2-1.4-1.5-1.6
			s-0.5-0.5-0.7-0.5l-8.6,0c-0.4,0-0.4,0.2-0.4,0.3s-0.1,2.6-0.1,2.9s0.2,1,0.4,1c-0.1-0.1,1.3,0.2,1.9,0.2c0.4,0,0.7,0.1,1.1,0.1
			c0.4,0.1,1.3,0.3,1.7,0.4c0.4,0,0.9,0.1,1.3,0.3c0.2,0.5,0.4,1,0.5,1.5c0.1,0.4,0.3,2.4,0.3,2.9c0,0.4,0,0.8,0,1.2
			c0,0.2-0.1,0.5-0.3,0.6c-0.4,0.1-0.7,0.1-1.1,0.2c-0.4,0-2,0-2.2,0s-0.2,0-0.3-0.3s-0.3-3-0.3-3.2s-0.1-0.3-0.3-0.3h-3.6
			c-0.3,0-0.6,0.1-0.6,0.4s0.3,4.5,0.3,5.4s0.2,1.7,0.2,1.9s0.1,0.3,0.3,0.3l2.6-0.1c0.3,0,1-0.1,1,0.3s0.1,3,0.1,3.2
			s0.1,0.5-0.2,0.6s-3.5,0.4-4.7,0.5s-1.7,0.2-1.8,0.2c-0.2,0-0.5-0.1-0.6-0.3c-0.2-1-0.3-1.9-0.3-2.9c0-0.5,0-1.2-0.3-1.4
			c-0.3-0.2-0.7-0.3-1.1-0.3c-0.7-0.1-4.3-0.5-5.5-0.5s-1.6-0.2-1.7,0c-0.3,0.6-0.4,1.3-0.3,2c0,0.6,0,1.2,0.1,1.7
			c0.1,0.2,0.3,0.4,0.5,0.4c0.7,0,1.4,0.1,2.1,0.2c0.4,0.1,1,0.3,1.1,0.7c0.1,0.3,0.2,0.7,0.2,1c0,0.4,0,6,0,6.3s0.1,0.7-0.2,1
			s-0.5,0.2-0.9,0.2s-2-0.2-2.3-0.2c-0.3-0.1-0.6-0.3-0.8-0.6c-0.1-1-0.2-2.1-0.2-3.1c0-0.6,0.2-1-0.5-1.1s-1.9-0.1-2.8-0.2
			l-3.2-0.1c-0.5,0-0.7,0-1-0.3c-0.2-0.4-0.3-0.8-0.3-1.2c0-0.6,0-1.5,0-1.7c0-0.2,0.2-0.5,0.4-0.5c0.6-0.1,1.1-0.2,1.7-0.4
			c0.4-0.1,0.9-0.3,1.3-0.5c0.1-0.1,0.2-0.2,0.2-0.6s0-1.4-0.1-2.2c-0.1-0.6-0.2-1.2-0.4-1.8c0-0.2-0.1-0.3-0.5-0.2l-2.4,0.5
			c-0.6,0-1.2-0.1-1.7-0.3c-0.4-0.2-0.7-0.4-1.1-0.6c-0.3-0.3-0.4-0.6-0.4-1c0.1-0.3,1-1.9,1.3-2.7s1-2.3,1.1-2.6
			c0.1-0.3,0.4-0.4,0.6-0.3c0,0,0,0,0,0c0.5,0.1,1,0.3,1.6,0.4c0.4,0.1,0.8,0.4,0.9,0.7c0.1,0.3,0.1,0.6,0.1,0.9
			c0,0.3,0,0.5,0.1,0.5s2.6,0.6,3.1,0.7s0.8,0.1,0.9-0.1s0.7-2.4,0.7-3s0.1-2.1,0.1-2.5s0-0.6-0.3-0.7s-1.8-0.7-2.1-0.8
			c-0.6,0-1.2,0-1.7,0.1c-0.5,0-2.3-0.2-3.1-0.2l-1.3-0.1c-0.2,0-0.4-0.1-0.4-0.3C99.1,49.2,99.1,49.1,99.2,48.9"/>
		<path class="st1" d="M91.4,39.9c0-0.4,0.3-0.7,0.7-0.7c0.4,0,0.7,0.3,0.8,0.7H91.4 M92.9,40.6c-0.1,0.3-0.3,0.5-0.7,0.5
			c-0.4,0-0.8-0.3-0.8-0.7c0,0,0-0.1,0-0.1h2c0-0.6-0.3-1.5-1.2-1.5c-0.7,0-1.2,0.6-1.2,1.3c0,0,0,0.1,0,0.1c0,0.8,0.4,1.4,1.2,1.4
			c0.5,0.1,1-0.3,1.1-0.9c0,0,0,0,0,0L92.9,40.6z"/>
		<path class="st2" d="M93.8,41.4h0.4v-1.6c0-0.4,0.3-0.7,0.7-0.7c0.4,0,0.5,0.2,0.5,0.6v1.7h0.4v-1.6c0-0.3,0.2-0.6,0.6-0.7
			c0,0,0.1,0,0.1,0c0.4,0,0.5,0.3,0.5,0.6v1.7h0.4v-1.9c0-0.5-0.3-0.8-0.9-0.8c-0.3,0-0.6,0.2-0.8,0.4c-0.1-0.3-0.4-0.5-0.7-0.4
			c-0.3,0-0.7,0.2-0.8,0.4l0,0v-0.4h-0.4L93.8,41.4"/>
		<path class="st1" d="M100.4,41.1c0,0-0.1,0-0.1,0c-0.1,0-0.1-0.1-0.1-0.3v-1.3c0-0.6-0.5-0.7-1-0.7S98,39,98,39.7h0.4
			c0-0.4,0.3-0.5,0.7-0.5s0.6,0.1,0.6,0.4s-0.4,0.3-0.9,0.4s-0.9,0.2-0.9,0.8s0.4,0.7,0.9,0.7c0.4,0,0.7-0.1,0.9-0.4
			c0,0.3,0.1,0.4,0.4,0.4c0.1,0,0.2,0,0.3-0.1L100.4,41.1 M99.7,40.5c0,0.2-0.2,0.6-0.8,0.6c-0.3,0-0.5-0.1-0.5-0.4s0.2-0.4,0.5-0.5
			c0.3,0,0.5-0.1,0.8-0.2L99.7,40.5z"/>
		<path class="st2" d="M100.8,41.4h0.4V40c-0.1-0.4,0.2-0.8,0.6-0.8c0,0,0.1,0,0.1,0c0.3,0,0.5,0.2,0.5,0.4c0,0,0,0.1,0,0.1v1.8h0.4
			v-1.7c0-0.6-0.2-1-0.9-1c-0.3,0-0.7,0.2-0.8,0.5l0,0v-0.4h-0.4L100.8,41.4"/>
		<path class="st2" d="M105.6,38.1h-0.4v0.8h-0.4v0.4h0.4v1.7c0,0.5,0.2,0.6,0.6,0.6h0.3v-0.4h-0.2c-0.3,0-0.3,0-0.3-0.2v-1.6h0.5
			v-0.4h-0.5L105.6,38.1"/>
		<path class="st1" d="M108.9,41.1c0,0-0.1,0-0.1,0c-0.1,0-0.1-0.1-0.1-0.3v-1.3c0-0.6-0.5-0.7-1-0.7s-1.1,0.2-1.1,0.9h0.4
			c0-0.4,0.3-0.5,0.7-0.5s0.6,0.1,0.6,0.4s-0.4,0.3-0.9,0.4s-0.9,0.2-0.9,0.8s0.4,0.7,0.9,0.7c0.4,0,0.7-0.1,0.9-0.4
			c0,0.3,0.1,0.4,0.4,0.4c0.1,0,0.2,0,0.3-0.1L108.9,41.1 M108.1,40.5c0,0.2-0.2,0.6-0.8,0.6c-0.3,0-0.5-0.1-0.5-0.4
			s0.2-0.4,0.5-0.5c0.3,0,0.5-0.1,0.8-0.2L108.1,40.5z"/>
		<polyline class="st2" points="110.4,41.4 112.6,41.4 112.6,41.1 111,41.1 112.6,39.1 112.6,38.8 110.5,38.8 110.5,39.2 112,39.2 
			110.4,41.1 110.4,41.4 		"/>
		<path class="st1" d="M115.4,41.1c0,0-0.1,0-0.1,0c-0.1,0-0.1-0.1-0.1-0.3v-1.3c0-0.6-0.5-0.7-1-0.7S113,39,113,39.7h0.4
			c0-0.4,0.3-0.5,0.7-0.5s0.6,0.1,0.6,0.4s-0.4,0.3-0.9,0.4s-0.9,0.2-0.9,0.8s0.4,0.7,0.9,0.7c0.3,0,0.7-0.1,0.9-0.4
			c0,0.3,0.1,0.4,0.4,0.4c0.1,0,0.2,0,0.3-0.1L115.4,41.1 M114.7,40.5c0,0.2-0.2,0.6-0.8,0.6c-0.3,0-0.5-0.1-0.5-0.4
			s0.2-0.4,0.5-0.5c0.3,0,0.5-0.1,0.8-0.2L114.7,40.5z"/>
		<path class="st1" d="M115.8,41.4h0.4v-0.3l0,0c0.2,0.3,0.5,0.4,0.8,0.4c0.7,0,1.2-0.5,1.2-1.2c0,0,0-0.1,0-0.1
			c0.1-0.7-0.4-1.3-1.1-1.4c0,0-0.1,0-0.1,0c-0.3,0-0.7,0.1-0.8,0.4l0,0v-1.3h-0.4V41.4 M117.8,40.1c0,0.5-0.2,1-0.8,1
			s-0.8-0.5-0.8-1s0.2-1,0.8-1S117.8,39.6,117.8,40.1L117.8,40.1z"/>
		<path class="st1" d="M121.1,41.1c0,0-0.1,0-0.1,0c-0.1,0-0.1-0.1-0.1-0.3v-1.3c0-0.6-0.5-0.7-1-0.7s-1.1,0.2-1.1,0.9h0.4
			c0-0.4,0.3-0.5,0.7-0.5s0.6,0.1,0.6,0.4s-0.4,0.3-0.9,0.4s-0.9,0.2-0.9,0.8s0.4,0.7,0.9,0.7c0.4,0,0.7-0.1,0.9-0.4
			c0,0.3,0.1,0.4,0.4,0.4c0.1,0,0.2,0,0.3-0.1L121.1,41.1 M120.3,40.5c0,0.2-0.2,0.6-0.8,0.6c-0.3,0-0.5-0.1-0.5-0.4
			s0.2-0.4,0.5-0.5c0.3,0,0.5-0.1,0.8-0.2L120.3,40.5z"/>
		<rect x="121.5" y="37.8" class="st2" width="0.4" height="3.6"/>
		<polyline class="st2" points="123.8,41.4 126,41.4 126,41.1 124.3,41.1 125.9,39.1 125.9,38.8 123.9,38.8 123.9,39.2 125.3,39.2 
			123.8,41.1 123.8,41.4 		"/>
		<path class="st1" d="M128.7,41.1c0,0-0.1,0-0.1,0c-0.1,0-0.1-0.1-0.1-0.3v-1.3c0-0.6-0.5-0.7-1-0.7s-1.1,0.2-1.1,0.9h0.4
			c0-0.4,0.3-0.5,0.7-0.5s0.6,0.1,0.6,0.4s-0.4,0.3-0.9,0.4s-0.9,0.2-0.9,0.8s0.4,0.7,0.9,0.7c0.4,0,0.7-0.1,0.9-0.4
			c0,0.3,0.1,0.4,0.4,0.4c0.1,0,0.2,0,0.3-0.1L128.7,41.1 M128,40.5c0,0.2-0.2,0.6-0.8,0.6c-0.3,0-0.5-0.1-0.5-0.4s0.2-0.4,0.5-0.5
			c0.3,0,0.5-0.1,0.8-0.2L128,40.5z"/>
		<polyline class="st2" points="128.9,41.4 131.1,41.4 131.1,41.1 129.4,41.1 131,39.1 131,38.8 129,38.8 129,39.2 130.4,39.2 
			128.9,41.1 128.9,41.4 		"/>
		<path class="st2" d="M133.7,38.8h-0.4v1.5c0,0.4-0.2,0.8-0.6,0.8c0,0-0.1,0-0.1,0c-0.3,0-0.5-0.2-0.5-0.4c0,0,0-0.1,0-0.1v-1.8
			h-0.4v1.7c0,0.6,0.2,1,0.9,1c0.4,0,0.7-0.2,0.9-0.5l0,0v0.4h0.4L133.7,38.8"/>
	</g>
</g>
</svg>
